{
	"patcher" : 	{
		"fileversion" : 1,
		"appversion" : 		{
			"major" : 7,
			"minor" : 1,
			"revision" : 0,
			"architecture" : "x86",
			"modernui" : 1
		}
,
		"rect" : [ 59.0, 103.0, 1087.0, 619.0 ],
		"editing_bgcolor" : [ 0.9, 0.9, 0.9, 1.0 ],
		"bglocked" : 0,
		"openinpresentation" : 0,
		"default_fontsize" : 12.0,
		"default_fontface" : 0,
		"default_fontname" : "Arial",
		"gridonopen" : 1,
		"gridsize" : [ 15.0, 15.0 ],
		"gridsnaponopen" : 1,
		"objectsnaponopen" : 1,
		"statusbarvisible" : 2,
		"toolbarvisible" : 1,
		"lefttoolbarpinned" : 0,
		"toptoolbarpinned" : 0,
		"righttoolbarpinned" : 0,
		"bottomtoolbarpinned" : 0,
		"toolbars_unpinned_last_save" : 0,
		"tallnewobj" : 0,
		"boxanimatetime" : 200,
		"enablehscroll" : 1,
		"enablevscroll" : 1,
		"devicewidth" : 0.0,
		"description" : "",
		"digest" : "",
		"tags" : "",
		"style" : "",
		"subpatcher_template" : "",
		"boxes" : [ 			{
				"box" : 				{
					"id" : "obj-9",
					"maxclass" : "newobj",
					"numinlets" : 1,
					"numoutlets" : 1,
					"outlettype" : [ "" ],
					"patching_rect" : [ 50.0, 64.0, 28.0, 22.0 ],
					"style" : "",
					"text" : "> 0"
				}

			}
, 			{
				"box" : 				{
					"id" : "obj-8",
					"maxclass" : "newobj",
					"numinlets" : 1,
					"numoutlets" : 0,
					"patching_rect" : [ 691.0, 538.0, 37.0, 22.0 ],
					"style" : "",
					"text" : "out 2"
				}

			}
, 			{
				"box" : 				{
					"code" : "History x(0.);\r\nHistory total(0.);\r\nHistory count(0.);\r\nHistory long_avg(-70.);\r\nHistory avg(-70.);\r\n\r\nHistory s0(0.);\r\nHistory s1(0.);\r\nHistory s2(0.);\r\nHistory s3(0.);\r\n\r\ninc = 2.5/samplerate;\r\n\r\nd0 = delta(x) < -0.5;\r\nd1 = x >= 0.25;\r\nd2 = x >= 0.5;\r\nd3 = x >= 0.75;\r\n\r\ns0 = sah(in2, d0);\r\ns1 = sah(in2, d1);\r\ns2 = sah(in2, d2);\r\ns3 = sah(in2, d3);\r\n\r\nx += inc;\r\nx -= (x>=1.);\r\n\r\nd_all = d0+d1+d2+d3;\r\n\r\nnot_reset = delta(in1) <= 0;\r\n\r\ncount *= not_reset;\r\ntotal *= not_reset;\r\n\r\nif (d_all > 0) {\r\n \tif (in1 > 0) {\r\n\t\td_total = d0*s0 + d1*s1 + d2*s2 + d3*s3;\r\n\t\tlg = -0.691 + (10. * log10(d_total));\r\n\t\t// Only add in values above threshold\r\n\t\tif (lg > -70.) {\r\n\t\t\ttotal += lg;\t\r\n\t\t\tcount += 1;\r\n\t\t\tlong_avg = total/count;\r\n\t\t\t// It would be nice to have the thresholded version, but that's \r\n\t\t\t// not practical for real-time.\r\n\t\t}\r\n\t}\r\n\tavg = -0.691 + (10.*log10(0.25*(s0+s1+s2+s3)));\r\n}\r\n\r\nout1 = avg;\r\nout2 = long_avg;",
					"fontface" : 0,
					"fontname" : "Arial",
					"fontsize" : 12.0,
					"id" : "obj-5",
					"maxclass" : "codebox",
					"numinlets" : 2,
					"numoutlets" : 2,
					"outlettype" : [ "", "" ],
					"patching_rect" : [ 50.0, 96.0, 660.0, 423.0 ],
					"style" : ""
				}

			}
, 			{
				"box" : 				{
					"id" : "obj-1",
					"maxclass" : "newobj",
					"numinlets" : 0,
					"numoutlets" : 1,
					"outlettype" : [ "" ],
					"patching_rect" : [ 50.0, 35.0, 125.0, 22.0 ],
					"style" : "",
					"text" : "in 1 @comment reset"
				}

			}
, 			{
				"box" : 				{
					"id" : "obj-2",
					"maxclass" : "newobj",
					"numinlets" : 0,
					"numoutlets" : 1,
					"outlettype" : [ "" ],
					"patching_rect" : [ 691.0, 50.0, 132.0, 22.0 ],
					"style" : "",
					"text" : "in 2 @comment \"Ch 1\""
				}

			}
, 			{
				"box" : 				{
					"id" : "obj-4",
					"maxclass" : "newobj",
					"numinlets" : 1,
					"numoutlets" : 0,
					"patching_rect" : [ 50.0, 542.0, 37.0, 22.0 ],
					"style" : "",
					"text" : "out 1"
				}

			}
 ],
		"lines" : [ 			{
				"patchline" : 				{
					"destination" : [ "obj-9", 0 ],
					"disabled" : 0,
					"hidden" : 0,
					"source" : [ "obj-1", 0 ]
				}

			}
, 			{
				"patchline" : 				{
					"destination" : [ "obj-5", 1 ],
					"disabled" : 0,
					"hidden" : 0,
					"source" : [ "obj-2", 0 ]
				}

			}
, 			{
				"patchline" : 				{
					"destination" : [ "obj-4", 0 ],
					"disabled" : 0,
					"hidden" : 0,
					"source" : [ "obj-5", 0 ]
				}

			}
, 			{
				"patchline" : 				{
					"destination" : [ "obj-8", 0 ],
					"disabled" : 0,
					"hidden" : 0,
					"source" : [ "obj-5", 1 ]
				}

			}
, 			{
				"patchline" : 				{
					"destination" : [ "obj-5", 0 ],
					"disabled" : 0,
					"hidden" : 0,
					"source" : [ "obj-9", 0 ]
				}

			}
 ]
	}

}
