{
	"patcher" : 	{
		"fileversion" : 1,
		"appversion" : 		{
			"major" : 7,
			"minor" : 2,
			"revision" : 3,
			"architecture" : "x86",
			"modernui" : 1
		}
,
		"rect" : [ 57.0, 78.0, 1073.0, 633.0 ],
		"editing_bgcolor" : [ 0.9, 0.9, 0.9, 1.0 ],
		"bglocked" : 0,
		"openinpresentation" : 0,
		"default_fontsize" : 12.0,
		"default_fontface" : 0,
		"default_fontname" : "Arial",
		"gridonopen" : 1,
		"gridsize" : [ 15.0, 15.0 ],
		"gridsnaponopen" : 1,
		"objectsnaponopen" : 1,
		"statusbarvisible" : 2,
		"toolbarvisible" : 1,
		"lefttoolbarpinned" : 0,
		"toptoolbarpinned" : 0,
		"righttoolbarpinned" : 0,
		"bottomtoolbarpinned" : 0,
		"toolbars_unpinned_last_save" : 0,
		"tallnewobj" : 0,
		"boxanimatetime" : 200,
		"enablehscroll" : 1,
		"enablevscroll" : 1,
		"devicewidth" : 0.0,
		"description" : "",
		"digest" : "",
		"tags" : "",
		"style" : "",
		"subpatcher_template" : "",
		"boxes" : [ 			{
				"box" : 				{
					"id" : "obj-18",
					"maxclass" : "newobj",
					"numinlets" : 1,
					"numoutlets" : 0,
					"patching_rect" : [ 787.0, 590.0, 37.0, 22.0 ],
					"style" : "",
					"text" : "out 4"
				}

			}
, 			{
				"box" : 				{
					"id" : "obj-17",
					"maxclass" : "newobj",
					"numinlets" : 1,
					"numoutlets" : 0,
					"patching_rect" : [ 541.333313, 590.0, 37.0, 22.0 ],
					"style" : "",
					"text" : "out 3"
				}

			}
, 			{
				"box" : 				{
					"id" : "obj-16",
					"maxclass" : "newobj",
					"numinlets" : 1,
					"numoutlets" : 0,
					"patching_rect" : [ 295.666656, 590.0, 37.0, 22.0 ],
					"style" : "",
					"text" : "out 2"
				}

			}
, 			{
				"box" : 				{
					"code" : "History length (1);\r\nHistory idx (0);\r\nHistory remaining (0);\r\nHistory p1 (0);\r\nHistory p2 (0);\r\nHistory arm_reset(0);\r\n\r\nParam offset(0);\r\n\r\nlength_chan = 0;\r\nlength_pos  = 0;\r\nidx_offset  = 1;\r\n\r\nif (in2) \r\n{\r\n\tarm_reset = 1;\r\n}\r\n\r\nif (in1) \r\n{\r\n\tif (arm_reset) {\r\n\t\tidx = -1;\r\n\t\tremaining = offset + 1;\r\n\t\tarm_reset = 0;\r\n\t}\r\n\t\r\n\t/*\r\n\t\tSay you set a stage to 2,000,000--do you really want to wait if you change it?\r\n\t\tThis sets remaining to the minimum of the decremented remaining value or the stage length; i.e.,\r\n\t\tchange the stage length to something shorter, remaining responds.\t\r\n\t*/\r\n\tremaining = min(remaining - 1, peek (countbuf, idx + idx_offset, length_chan, channels=1));\r\n\r\n\tif (remaining <= 0)\r\n\t{\r\n\t\tlength = floor (min ( peek (countbuf, length_pos, length_chan, channels=1), dim (countbuf)));\r\n\t\titers = length;\r\n\t\twhile (remaining <= 0 && iters > 0) {\r\n\t\t\tidx = wrap (idx+1, 0, max (1, length));\r\n\t\t\tremaining = peek (countbuf, idx + idx_offset, length_chan, channels=1);\r\n\t\t\tp1 = in1; // Use the same value\r\n\t\t\tp2 = 0;\r\n\t\t\titers -= 1;\r\n\t\t}\r\n\t}\r\n\telse \r\n\t{\r\n\t\tp1 = 0;\r\n\t\tp2 = in1;\r\n\t}\r\n} \r\nelse\r\n{\r\n\tp1 = 0;\r\n\tp2 = 0;\r\n}\r\n\r\n\r\n\r\n\r\n\r\n\r\nout1 = p1;\r\nout2 = p2;\r\nout3 = max(0, remaining - 1);\r\nout4 = idx;\r\n",
					"fontface" : 0,
					"fontname" : "Arial",
					"fontsize" : 12.0,
					"id" : "obj-6",
					"maxclass" : "codebox",
					"numinlets" : 2,
					"numoutlets" : 4,
					"outlettype" : [ "", "", "", "" ],
					"patching_rect" : [ 50.0, 57.0, 756.0, 520.0 ],
					"style" : ""
				}

			}
, 			{
				"box" : 				{
					"id" : "obj-5",
					"maxclass" : "newobj",
					"numinlets" : 0,
					"numoutlets" : 2,
					"outlettype" : [ "", "" ],
					"patching_rect" : [ 560.0, 19.0, 90.0, 22.0 ],
					"style" : "",
					"text" : "buffer countbuf"
				}

			}
, 			{
				"box" : 				{
					"id" : "obj-1",
					"maxclass" : "newobj",
					"numinlets" : 0,
					"numoutlets" : 1,
					"outlettype" : [ "" ],
					"patching_rect" : [ 50.0, 14.0, 30.0, 22.0 ],
					"style" : "",
					"text" : "in 1"
				}

			}
, 			{
				"box" : 				{
					"id" : "obj-2",
					"maxclass" : "newobj",
					"numinlets" : 0,
					"numoutlets" : 1,
					"outlettype" : [ "" ],
					"patching_rect" : [ 787.0, 14.0, 30.0, 22.0 ],
					"style" : "",
					"text" : "in 2"
				}

			}
, 			{
				"box" : 				{
					"id" : "obj-4",
					"maxclass" : "newobj",
					"numinlets" : 1,
					"numoutlets" : 0,
					"patching_rect" : [ 50.0, 590.0, 37.0, 22.0 ],
					"style" : "",
					"text" : "out 1"
				}

			}
 ],
		"lines" : [ 			{
				"patchline" : 				{
					"destination" : [ "obj-6", 0 ],
					"disabled" : 0,
					"hidden" : 0,
					"source" : [ "obj-1", 0 ]
				}

			}
, 			{
				"patchline" : 				{
					"destination" : [ "obj-6", 1 ],
					"disabled" : 0,
					"hidden" : 0,
					"source" : [ "obj-2", 0 ]
				}

			}
, 			{
				"patchline" : 				{
					"destination" : [ "obj-16", 0 ],
					"disabled" : 0,
					"hidden" : 0,
					"source" : [ "obj-6", 1 ]
				}

			}
, 			{
				"patchline" : 				{
					"destination" : [ "obj-17", 0 ],
					"disabled" : 0,
					"hidden" : 0,
					"source" : [ "obj-6", 2 ]
				}

			}
, 			{
				"patchline" : 				{
					"destination" : [ "obj-18", 0 ],
					"disabled" : 0,
					"hidden" : 0,
					"source" : [ "obj-6", 3 ]
				}

			}
, 			{
				"patchline" : 				{
					"destination" : [ "obj-4", 0 ],
					"disabled" : 0,
					"hidden" : 0,
					"source" : [ "obj-6", 0 ]
				}

			}
 ],
		"autosave" : 0
	}

}
